<svg width="128" height="28" viewBox="0 0 128 28" fill="none" xmlns="http://www.w3.org/2000/svg">
<path d="M28.3072 4.25479C27.5462 4.17023 26.7852 4.12793 25.9396 4.12793C19.7246 4.12793 13.2559 6.19961 9.78902 9.2437L2.17882 4.59301C0.995005 3.87427 -0.400211 5.05807 0.107137 6.32644L3.19352 14.0212L0.107137 21.6737C-0.400211 22.9421 0.995005 24.1259 2.17882 23.4071L9.78902 18.7987C13.2559 21.8428 19.7246 23.8722 25.9396 23.8722C26.4047 23.8722 26.8697 23.8299 27.3348 23.8299C25.6436 21.1663 24.7135 18.0377 24.7135 14.6977C24.7558 10.808 26.1087 7.17203 28.3072 4.25479Z" fill="#25A7F1"/>
<path d="M31.6895 4.80469C29.195 7.3837 27.673 10.8929 27.673 14.7402C27.673 17.9957 28.7722 21.0398 30.6325 23.4497H30.6748C36.8475 22.2236 40.2298 18.4608 40.2298 14.0215C40.2298 9.83588 37.1857 6.24217 31.6895 4.80469ZM34.0148 13.2182C32.9156 13.2182 32.0277 12.3303 32.0277 11.2311C32.0277 10.1318 32.9156 9.24398 34.0148 9.24398C35.1141 9.24398 36.0019 10.1318 36.0019 11.2311C36.0019 12.3303 35.1141 13.2182 34.0148 13.2182Z" fill="#0081CA"/>
<path d="M47.6208 26.7127V9.43273H51.0571V11.5436H51.2126C51.3653 11.2055 51.5862 10.8618 51.8753 10.5127C52.1699 10.1582 52.5517 9.86364 53.0208 9.62909C53.4953 9.38909 54.0844 9.26909 54.788 9.26909C55.7044 9.26909 56.5499 9.50909 57.3244 9.98909C58.099 10.4636 58.718 11.1809 59.1817 12.1409C59.6453 13.0955 59.8771 14.2927 59.8771 15.7327C59.8771 17.1345 59.6508 18.3182 59.198 19.2836C58.7508 20.2436 58.1399 20.9718 57.3653 21.4682C56.5962 21.9591 55.7344 22.2045 54.7799 22.2045C54.1035 22.2045 53.528 22.0927 53.0535 21.8691C52.5844 21.6455 52.1999 21.3645 51.8999 21.0264C51.5999 20.6827 51.3708 20.3364 51.2126 19.9873H51.1062V26.7127H47.6208ZM51.0326 15.7164C51.0326 16.4636 51.1362 17.1155 51.3435 17.6718C51.5508 18.2282 51.8508 18.6618 52.2435 18.9727C52.6362 19.2782 53.1135 19.4309 53.6753 19.4309C54.2426 19.4309 54.7226 19.2755 55.1153 18.9645C55.508 18.6482 55.8053 18.2118 56.0071 17.6555C56.2144 17.0936 56.318 16.4473 56.318 15.7164C56.318 14.9909 56.2171 14.3527 56.0153 13.8018C55.8135 13.2509 55.5162 12.82 55.1235 12.5091C54.7308 12.1982 54.248 12.0427 53.6753 12.0427C53.108 12.0427 52.628 12.1927 52.2353 12.4927C51.848 12.7927 51.5508 13.2182 51.3435 13.7691C51.1362 14.32 51.0326 14.9691 51.0326 15.7164ZM66.6078 14.7345V22H63.1224V5.24364H66.5096V11.65H66.6569C66.9406 10.9082 67.3987 10.3273 68.0315 9.90727C68.6642 9.48182 69.4578 9.26909 70.4124 9.26909C71.2851 9.26909 72.046 9.46 72.6951 9.84182C73.3496 10.2182 73.8569 10.7609 74.2169 11.47C74.5824 12.1736 74.7624 13.0164 74.7569 13.9982V22H71.2715V14.62C71.2769 13.8455 71.0806 13.2427 70.6824 12.8118C70.2896 12.3809 69.7387 12.1655 69.0296 12.1655C68.5551 12.1655 68.1351 12.2664 67.7696 12.4682C67.4096 12.67 67.126 12.9645 66.9187 13.3518C66.7169 13.7336 66.6133 14.1945 66.6078 14.7345ZM78.4215 22V9.43273H81.9069V22H78.4215ZM80.1724 7.81273C79.6542 7.81273 79.2097 7.64091 78.8387 7.29727C78.4733 6.94818 78.2906 6.53091 78.2906 6.04545C78.2906 5.56545 78.4733 5.15364 78.8387 4.81C79.2097 4.46091 79.6542 4.28636 80.1724 4.28636C80.6906 4.28636 81.1324 4.46091 81.4978 4.81C81.8687 5.15364 82.0542 5.56545 82.0542 6.04545C82.0542 6.53091 81.8687 6.94818 81.4978 7.29727C81.1324 7.64091 80.6906 7.81273 80.1724 7.81273ZM96.0769 13.0164L92.886 13.2127C92.8315 12.94 92.7142 12.6945 92.5342 12.4764C92.3542 12.2527 92.1169 12.0755 91.8224 11.9445C91.5333 11.8082 91.1869 11.74 90.7833 11.74C90.2433 11.74 89.7878 11.8545 89.4169 12.0836C89.046 12.3073 88.8606 12.6073 88.8606 12.9836C88.8606 13.2836 88.9806 13.5373 89.2206 13.7445C89.4606 13.9518 89.8724 14.1182 90.456 14.2436L92.7306 14.7018C93.9524 14.9527 94.8633 15.3564 95.4633 15.9127C96.0633 16.4691 96.3633 17.2 96.3633 18.1055C96.3633 18.9291 96.1206 19.6518 95.6351 20.2736C95.1551 20.8955 94.4951 21.3809 93.6551 21.73C92.8206 22.0736 91.8578 22.2455 90.7669 22.2455C89.1033 22.2455 87.7778 21.8991 86.7906 21.2064C85.8088 20.5082 85.2333 19.5591 85.0642 18.3591L88.4924 18.1791C88.596 18.6864 88.8469 19.0736 89.2451 19.3409C89.6433 19.6027 90.1533 19.7336 90.7751 19.7336C91.386 19.7336 91.8769 19.6164 92.2478 19.3818C92.6242 19.1418 92.8151 18.8336 92.8206 18.4573C92.8151 18.1409 92.6815 17.8818 92.4197 17.68C92.1578 17.4727 91.7542 17.3145 91.2088 17.2055L89.0324 16.7718C87.8051 16.5264 86.8915 16.1009 86.2915 15.4955C85.6969 14.89 85.3997 14.1182 85.3997 13.18C85.3997 12.3727 85.6178 11.6773 86.0542 11.0936C86.496 10.51 87.1151 10.06 87.9115 9.74364C88.7133 9.42727 89.6515 9.26909 90.726 9.26909C92.3133 9.26909 93.5624 9.60454 94.4733 10.2755C95.3897 10.9464 95.9242 11.86 96.0769 13.0164ZM102.965 14.7345V22H99.4797V5.24364H102.867V11.65H103.014C103.298 10.9082 103.756 10.3273 104.389 9.90727C105.021 9.48182 105.815 9.26909 106.77 9.26909C107.642 9.26909 108.403 9.46 109.052 9.84182C109.707 10.2182 110.214 10.7609 110.574 11.47C110.94 12.1736 111.12 13.0164 111.114 13.9982V22H107.629V14.62C107.634 13.8455 107.438 13.2427 107.04 12.8118C106.647 12.3809 106.096 12.1655 105.387 12.1655C104.912 12.1655 104.492 12.2664 104.127 12.4682C103.767 12.67 103.483 12.9645 103.276 13.3518C103.074 13.7336 102.971 14.1945 102.965 14.7345ZM116.481 26.7127C116.039 26.7127 115.624 26.6773 115.237 26.6064C114.855 26.5409 114.539 26.4564 114.288 26.3527L115.073 23.7509C115.482 23.8764 115.851 23.9445 116.178 23.9555C116.511 23.9664 116.797 23.89 117.037 23.7264C117.282 23.5627 117.481 23.2845 117.634 22.8918L117.839 22.36L113.331 9.43273H116.996L119.598 18.6618H119.729L122.355 9.43273H126.045L121.161 23.3582C120.926 24.0345 120.607 24.6236 120.203 25.1255C119.805 25.6327 119.301 26.0227 118.69 26.2955C118.079 26.5736 117.342 26.7127 116.481 26.7127Z" fill="#25A7F1"/>
</svg>
